<?xml version="1.0" encoding="UTF-8"?>
<svg xmlns="http://www.w3.org/2000/svg" xmlns:xlink="http://www.w3.org/1999/xlink" width="492.99868" height="226.3629" viewBox="0 0 492.99868 226.3629">
<defs>
<clipPath id="clip-0">
<path clip-rule="nonzero" d="M 265.816406 115.246094 L 487.5 115.246094 L 487.5 118 L 265.816406 118 Z M 265.816406 115.246094 "/>
</clipPath>
<clipPath id="clip-1">
<path clip-rule="nonzero" d="M 378 13.566406 L 380.894531 13.566406 L 380.894531 224.101562 L 378 224.101562 Z M 378 13.566406 "/>
</clipPath>
<clipPath id="clip-2">
<path clip-rule="nonzero" d="M 359.105469 36 L 458 36 L 458 135 L 359.105469 135 Z M 359.105469 36 "/>
</clipPath>
<clipPath id="clip-3">
<path clip-rule="nonzero" d="M 343.222656 20 L 474 20 L 474 150.882812 L 343.222656 150.882812 Z M 343.222656 20 "/>
</clipPath>
<clipPath id="clip-4">
<path clip-rule="nonzero" d="M 327.34375 4 L 490 4 L 490 166.765625 L 327.34375 166.765625 Z M 327.34375 4 "/>
</clipPath>
<clipPath id="clip-5">
<path clip-rule="nonzero" d="M 408 80.976562 L 411.828125 80.976562 L 411.828125 89.652344 L 408 89.652344 Z M 408 80.976562 "/>
</clipPath>
<clipPath id="clip-6">
<path clip-rule="nonzero" d="M 405.457031 83.335938 L 414.035156 83.335938 L 414.035156 87 L 405.457031 87 Z M 405.457031 83.335938 "/>
</clipPath>
<clipPath id="clip-7">
<path clip-rule="nonzero" d="M 1.683594 115.246094 L 223.367188 115.246094 L 223.367188 118 L 1.683594 118 Z M 1.683594 115.246094 "/>
</clipPath>
<clipPath id="clip-8">
<path clip-rule="nonzero" d="M 114 13.566406 L 116.765625 13.566406 L 116.765625 224.101562 L 114 224.101562 Z M 114 13.566406 "/>
</clipPath>
<clipPath id="clip-9">
<path clip-rule="nonzero" d="M 65 67.019531 L 164 67.019531 L 164 166 L 65 166 Z M 65 67.019531 "/>
</clipPath>
<clipPath id="clip-10">
<path clip-rule="nonzero" d="M 49 51.136719 L 180 51.136719 L 180 182 L 49 182 Z M 49 51.136719 "/>
</clipPath>
<clipPath id="clip-11">
<path clip-rule="nonzero" d="M 33 35.257812 L 195.886719 35.257812 L 195.886719 198 L 33 198 Z M 33 35.257812 "/>
</clipPath>
<clipPath id="clip-12">
<path clip-rule="nonzero" d="M 114 112.351562 L 117 112.351562 L 117 121.03125 L 114 121.03125 Z M 114 112.351562 "/>
</clipPath>
<clipPath id="clip-13">
<path clip-rule="nonzero" d="M 111.574219 115 L 119.210938 115 L 119.210938 118.777344 L 111.574219 118.777344 Z M 111.574219 115 "/>
</clipPath>
</defs>
<rect x="-49.299868" y="-22.63629" width="591.598416" height="271.63548" fill="rgb(99.998474%, 100%, 100%)" fill-opacity="1"/>
<g clip-path="url(#clip-0)">
<path fill="none" stroke-width="3" stroke-linecap="butt" stroke-linejoin="round" stroke="rgb(0%, 0%, 0%)" stroke-opacity="1" stroke-miterlimit="4" d="M -0.00283751 -0.000828235 L 379.519843 -0.000828235 " transform="matrix(0.581055, 0, 0, 0.581055, 266.39618, 116.6997)"/>
</g>
<g clip-path="url(#clip-1)">
<path fill="none" stroke-width="3" stroke-linecap="butt" stroke-linejoin="round" stroke="rgb(0%, 0%, 0%)" stroke-opacity="1" stroke-miterlimit="4" d="M -0.00333445 -0.00202003 L 360.332792 -0.00202003 " transform="matrix(0, -0.581055, 0.581055, 0, 379.44258, 223.5215)"/>
</g>
<g clip-path="url(#clip-2)">
<path fill="none" stroke-width="5" stroke-linecap="butt" stroke-linejoin="round" stroke="rgb(40.391541%, 49.01886%, 0%)" stroke-opacity="1" stroke-miterlimit="4" d="M 139.981111 24.018242 C 172.001278 56.03841 172.001278 107.957736 139.981111 139.977904 C 107.960944 172.004794 56.041617 172.004794 24.014727 139.977904 C -8.00544 107.957736 -8.00544 56.03841 24.014727 24.018242 C 56.041617 -8.008648 107.960944 -8.008648 139.981111 24.018242 Z M 139.981111 24.018242 " transform="matrix(0.581055, 0, 0, 0.581055, 361.13988, 37.6769)"/>
</g>
<g clip-path="url(#clip-3)">
<path fill="none" stroke-width="5" stroke-linecap="butt" stroke-linejoin="round" stroke="rgb(67.329407%, 75.450134%, 29.315186%)" stroke-opacity="1" stroke-miterlimit="4" d="M 186.641725 32.023566 C 229.337522 74.719364 229.337522 143.942892 186.641725 186.638689 C 143.945927 229.341209 74.722399 229.341209 32.019879 186.638689 C -10.675918 143.942892 -10.675918 74.719364 32.019879 32.023566 C 74.722399 -10.672231 143.945927 -10.672231 186.641725 32.023566 Z M 186.641725 32.023566 " transform="matrix(0.581055, 0, 0, 0.581055, 345.25798, 21.7949)"/>
</g>
<g clip-path="url(#clip-4)">
<path fill="none" stroke-width="5" stroke-linecap="butt" stroke-linejoin="round" stroke="rgb(81.005859%, 83.999634%, 67.669678%)" stroke-opacity="1" stroke-miterlimit="4" d="M 233.30251 40.028891 C 286.673937 93.400318 286.673937 179.928047 233.30251 233.299475 C 179.931083 286.670902 93.396631 286.670902 40.025203 233.299475 C -13.339501 179.928047 -13.339501 93.400318 40.025203 40.028891 C 93.396631 -13.342537 179.931083 -13.342537 233.30251 40.028891 Z M 233.30251 40.028891 " transform="matrix(0.581055, 0, 0, 0.581055, 329.37598, 5.9129)"/>
</g>
<g clip-path="url(#clip-5)">
<path fill="none" stroke-width="5" stroke-linecap="butt" stroke-linejoin="round" stroke="rgb(40.391541%, 49.01886%, 0%)" stroke-opacity="1" stroke-miterlimit="4" d="M 0.0032484 0.0013682 L 12.937702 0.0013682 " transform="matrix(0, -0.581055, 0.581055, 0, 409.79608, 89.0722)"/>
</g>
<g clip-path="url(#clip-6)">
<path fill="none" stroke-width="5" stroke-linecap="butt" stroke-linejoin="round" stroke="rgb(40.391541%, 49.01886%, 0%)" stroke-opacity="1" stroke-miterlimit="4" d="M -0.00227818 -0.00139832 L 12.764108 -0.00139832 " transform="matrix(0.581055, 0, 0, 0.581055, 406.03648, 85.368)"/>
</g>
<g clip-path="url(#clip-7)">
<path fill="none" stroke-width="3" stroke-linecap="butt" stroke-linejoin="round" stroke="rgb(0%, 0%, 0%)" stroke-opacity="1" stroke-miterlimit="4" d="M -0.00150588 -0.000828235 L 379.521175 -0.000828235 " transform="matrix(0.581055, 0, 0, 0.581055, 2.2665, 116.6997)"/>
</g>
<g clip-path="url(#clip-8)">
<path fill="none" stroke-width="3" stroke-linecap="butt" stroke-linejoin="round" stroke="rgb(0%, 0%, 0%)" stroke-opacity="1" stroke-miterlimit="4" d="M -0.00333445 -0.000653983 L 360.332792 -0.000653983 " transform="matrix(0, -0.581055, 0.581055, 0, 115.31288, 223.5215)"/>
</g>
<g clip-path="url(#clip-9)">
<path fill="none" stroke-width="5" stroke-linecap="butt" stroke-linejoin="round" stroke="rgb(40.391541%, 49.01886%, 0%)" stroke-opacity="1" stroke-miterlimit="4" d="M 139.982402 24.014972 C 172.002569 56.041862 172.002569 107.961189 139.982402 139.981356 C 107.955512 172.001524 56.042908 172.001524 24.016018 139.981356 C -8.00415 107.961189 -8.00415 56.041862 24.016018 24.014972 C 56.042908 -8.005195 107.955512 -8.005195 139.982402 24.014972 Z M 139.982402 24.014972 " transform="matrix(0.581055, 0, 0, 0.581055, 66.79538, 69.0538)"/>
</g>
<g clip-path="url(#clip-10)">
<path fill="none" stroke-width="5" stroke-linecap="butt" stroke-linejoin="round" stroke="rgb(67.329407%, 75.450134%, 29.315186%)" stroke-opacity="1" stroke-miterlimit="4" d="M 186.643015 32.020124 C 229.338813 74.722644 229.338813 143.946172 186.643015 186.64197 C 143.947218 229.337767 74.716967 229.337767 32.02117 186.64197 C -10.674628 143.946172 -10.674628 74.722644 32.02117 32.020124 C 74.716967 -10.675673 143.947218 -10.675673 186.643015 32.020124 Z M 186.643015 32.020124 " transform="matrix(0.581055, 0, 0, 0.581055, 50.91348, 53.1719)"/>
</g>
<g clip-path="url(#clip-11)">
<path fill="none" stroke-width="5" stroke-linecap="butt" stroke-linejoin="round" stroke="rgb(81.005859%, 83.999634%, 67.669678%)" stroke-opacity="1" stroke-miterlimit="4" d="M 233.303784 40.025449 C 286.675211 93.396876 286.675211 179.931328 233.303784 233.302755 C 179.932356 286.674183 93.397904 286.674183 40.026477 233.302755 C -13.344951 179.931328 -13.344951 93.396876 40.026477 40.025449 C 93.397904 -13.345979 179.932356 -13.345979 233.303784 40.025449 Z M 233.303784 40.025449 " transform="matrix(0.581055, 0, 0, 0.581055, 35.03149, 37.2899)"/>
</g>
<g clip-path="url(#clip-12)">
<path fill="none" stroke-width="5" stroke-linecap="butt" stroke-linejoin="round" stroke="rgb(40.391541%, 49.01886%, 0%)" stroke-opacity="1" stroke-miterlimit="4" d="M -0.0000322689 0.00265896 L 12.934421 0.00265896 " transform="matrix(0, -0.581055, 0.581055, 0, 115.45158, 120.4492)"/>
</g>
<g clip-path="url(#clip-13)">
<path fill="none" stroke-width="5" stroke-linecap="butt" stroke-linejoin="round" stroke="rgb(40.391541%, 49.01886%, 0%)" stroke-opacity="1" stroke-miterlimit="4" d="M 0.00166938 0.00188235 L 11.141165 0.00188235 " transform="matrix(0.581055, 0, 0, 0.581055, 112.15528, 116.745)"/>
</g>
<path fill-rule="nonzero" fill="rgb(69.410706%, 24.313354%, 14.901733%)" fill-opacity="1" d="M 118.507812 65.777344 C 120.273438 67.542969 120.273438 70.40625 118.507812 72.171875 C 116.738281 73.941406 113.875 73.941406 112.109375 72.171875 C 110.34375 70.40625 110.34375 67.542969 112.109375 65.777344 C 113.875 64.011719 116.738281 64.011719 118.507812 65.777344 Z M 118.507812 65.777344 "/>
<path fill-rule="nonzero" fill="rgb(69.410706%, 24.313354%, 14.901733%)" fill-opacity="1" d="M 413.078125 34.621094 C 414.84375 36.386719 414.84375 39.25 413.078125 41.019531 C 411.3125 42.785156 408.449219 42.785156 406.679688 41.019531 C 404.914062 39.25 404.914062 36.386719 406.679688 34.621094 C 408.449219 32.855469 411.3125 32.855469 413.078125 34.621094 Z M 413.078125 34.621094 "/>
</svg>
