<svg width="630" height="630" viewBox="0 0 630 630" fill="none" xmlns="http://www.w3.org/2000/svg">
<g clip-path="url(#clip0_241_98)">
<path d="M315.005 625.009C486.215 625.009 625.009 486.215 625.009 315.005C625.009 143.795 486.215 5.00146 315.005 5.00146C143.795 5.00146 5.00134 143.795 5.00134 315.005C5.00134 486.215 143.795 625.009 315.005 625.009Z" fill="white" stroke="#240642" stroke-width="10" stroke-miterlimit="10"/>
<mask id="mask0_241_98" style="mask-type:luminance" maskUnits="userSpaceOnUse" x="5" y="5" width="621" height="621">
<path d="M315.005 625.009C486.215 625.009 625.009 486.215 625.009 315.005C625.009 143.795 486.215 5.00146 315.005 5.00146C143.795 5.00146 5.00134 143.795 5.00134 315.005C5.00134 486.215 143.795 625.009 315.005 625.009Z" fill="white"/>
</mask>
<g mask="url(#mask0_241_98)">
<path d="M-335.451 -236.144C-335.451 -236.144 -439.519 -70.4489 -307.793 69.1387C-176.068 208.726 -200.694 351.795 -200.694 351.795C-200.694 351.795 -113.451 367.229 -97.2362 314.725C-97.2362 314.725 -42.8016 417.793 39.1906 353.395C39.1906 353.395 104.748 487.502 255.839 404.189C406.93 320.877 479.129 440.929 479.129 440.929C479.129 440.929 514.919 401.548 516.559 361.718C516.559 361.718 768.697 551.959 823.142 311.254L988.287 -38.3002L-198.414 -598.961C-198.414 -598.961 -491.573 -378.662 -335.451 -236.144Z" fill="#240642"/>
</g>
<path d="M344.513 555.06C343.343 553.619 342.702 551.819 342.702 549.969V536.585C342.702 527.082 338.221 521.641 330.309 521.641C319.766 521.641 317.726 527.382 314.915 532.274C314.775 532.514 314.475 532.594 314.235 532.464L313.645 532.154C313.394 532.024 313.304 531.704 313.444 531.454L314.245 530.053C314.755 529.183 315.025 528.203 315.025 527.192V525.172C315.025 523.872 313.965 522.811 312.664 522.811H301.181C299.451 522.811 298.52 524.842 299.651 526.152L301.321 528.103C303.012 530.063 303.932 532.564 303.932 535.155V549.048C303.932 550.589 303.602 552.109 302.962 553.519L301.631 556.45C301.021 557.791 302.001 559.311 303.472 559.311H317.816C319.526 559.311 320.466 557.32 319.376 556L318.216 554.59C317.035 553.149 316.385 551.339 316.385 549.468V541.796C316.385 539.116 317.025 536.465 318.366 534.144C319.996 531.333 322.117 529.893 324.788 529.893C328.368 529.893 330.299 532.444 330.299 537.055V549.508C330.299 551.009 329.989 552.499 329.379 553.88L328.238 556.46C327.648 557.801 328.629 559.301 330.089 559.301H343.703C345.403 559.301 346.343 557.32 345.273 556L344.503 555.05L344.513 555.06Z" fill="#240642"/>
<path d="M370.08 553.97C369.62 554.06 369.17 554.12 368.779 554.13C365.078 554.13 363.298 551.799 363.298 547.008V527.963H370.04C370.82 527.963 371.45 527.332 371.45 526.552V524.242C371.45 523.461 370.82 522.831 370.04 522.831H361.417C361.177 522.831 360.977 522.631 360.977 522.391V521.741C360.977 521.501 361.167 521.301 361.407 521.301H362.288C362.848 521.301 363.298 520.851 363.298 520.291V515.249C363.298 514.289 362.518 513.509 361.557 513.509H356.596C355.696 513.509 354.896 514.099 354.626 514.959C354.055 516.85 352.675 522.821 348.194 522.821H346.864C346.083 522.821 345.453 523.451 345.453 524.232V526.542C345.453 527.322 346.083 527.953 346.864 527.953H350.975V547.478C350.975 555.42 355.016 559.801 362.338 559.801C365.989 559.801 369.31 558.471 371.32 556.06C372.1 555.12 371.29 553.72 370.09 553.95L370.08 553.97Z" fill="#240642"/>
<path d="M298.08 552.539C295.9 552.929 294.419 551.219 294.419 548.538V535.615C294.419 526.402 288.578 521.451 277.235 521.451C267.072 521.451 260.14 525.352 260.12 531.253C260.12 532.314 260.51 533.354 261.1 534.354C262.041 535.795 263.741 536.765 265.692 536.765C268.652 536.765 271.063 534.524 271.063 531.774C271.063 528.943 268.662 527.512 267.942 527.242C268.462 526.802 270.683 525.092 273.964 525.092C279.185 525.092 281.986 529.053 281.986 535.215V537.665C278.065 537.665 273.674 538.055 270.583 538.815C263.021 540.466 259.03 544.777 259.03 550.139C259.03 556.19 263.841 559.961 271.473 559.961C276.765 559.961 281.166 558.111 283.226 555.01C284.527 557.621 287.417 559.271 291.128 559.271C295.93 559.271 298.45 556.76 299.241 553.79C299.451 552.939 298.801 552.409 298.08 552.549V552.539ZM281.976 549.638C281.566 552.519 279.575 554.24 276.685 554.24C273.524 554.24 271.393 552.109 271.393 548.738C271.393 546.127 272.563 543.847 275.104 542.747C276.825 541.986 279.495 541.576 281.976 541.506V549.638Z" fill="#240642"/>
<path d="M413.001 552.539C410.821 552.929 409.34 551.219 409.34 548.538V535.615C409.34 526.402 403.499 521.451 392.156 521.451C381.993 521.451 375.061 525.352 375.041 531.253C375.041 532.314 375.431 533.354 376.021 534.354C376.962 535.795 378.662 536.765 380.613 536.765C383.573 536.765 385.984 534.524 385.984 531.774C385.984 528.943 383.583 527.512 382.863 527.242C383.383 526.802 385.604 525.092 388.885 525.092C394.106 525.092 396.907 529.053 396.907 535.215V537.665C392.986 537.665 388.595 538.055 385.504 538.815C377.942 540.466 373.951 544.777 373.951 550.139C373.951 556.19 378.762 559.961 386.394 559.961C391.686 559.961 396.087 558.111 398.147 555.01C399.448 557.621 402.338 559.271 406.049 559.271C410.851 559.271 413.371 556.76 414.162 553.79C414.372 552.939 413.722 552.409 413.001 552.549V552.539ZM396.897 549.638C396.487 552.519 394.496 554.24 391.606 554.24C388.445 554.24 386.314 552.109 386.314 548.738C386.314 546.127 387.484 543.847 390.025 542.747C391.746 541.986 394.416 541.576 396.897 541.506V549.638Z" fill="#240642"/>
<path d="M260.97 510.658H254.739C253.398 510.658 252.588 512.148 253.328 513.269L254.399 514.889C255.309 516.279 255.489 518.02 254.879 519.56L243.696 547.698C243.186 549.048 242.655 549.979 242.425 550.209C242.295 550.329 242.085 550.369 241.925 550.249L241.335 549.779C241.145 549.638 241.155 549.438 241.335 549.238C241.665 548.798 241.865 548.278 241.985 547.798C242.125 547.228 242.075 546.618 241.865 546.067L232.393 521.031C231.762 519.38 231.792 517.55 232.463 515.919L233.473 513.449C234.013 512.118 233.043 510.658 231.602 510.658H216.338C214.278 510.658 213.207 513.109 214.608 514.619L215.578 515.669C217.359 517.61 218.769 519.85 219.739 522.301L233.343 557.841C233.703 558.741 234.573 559.331 235.533 559.331H243.066C244.036 559.331 244.906 558.741 245.256 557.841L262.871 513.419C263.401 512.088 262.421 510.648 260.99 510.648L260.97 510.658Z" fill="#240642"/>
<path d="M52.3641 287.898C60.8464 151.541 178.268 44.7922 314.245 45.0123C397.167 44.4221 477.659 84.5429 527.022 151.171C536.785 164.304 545.317 178.308 552.469 192.962C566.673 222.3 575.355 254.219 577.476 286.427C577.536 290.168 572.294 290.919 571.504 287.068C555.75 176.828 470.227 86.1534 360.217 67.0182C251.078 46.8728 139.518 101.718 87.4436 199.684C72.5896 227.091 62.8569 257.32 58.3357 288.518C58.0957 290.158 56.5752 291.299 54.9348 291.059C53.3844 290.839 52.2741 289.438 52.3641 287.908V287.898Z" fill="#AC55FF"/>
<path d="M164.287 290.12L176.312 284.323C182.647 287.973 191.236 290.228 198.86 290.228C214.321 290.228 224.735 281.101 224.735 267.68C224.735 256.407 217.22 248.998 199.718 242.664L188.445 238.584C178.567 234.718 174.702 230.638 174.702 224.84C174.702 219.043 178.674 215.392 185.224 215.392C191.666 215.392 199.396 219.15 208.845 227.095L218.078 234.933V211.527L205.946 217.217C199.289 212.278 191.558 209.594 184.15 209.594C171.266 209.594 162.14 217.969 162.14 229.887C162.14 240.731 169.655 248.891 184.58 254.367L197.034 258.769C208.093 263.064 211.958 266.821 211.958 273.264C211.958 280.243 207.342 284.215 199.289 284.215C191.881 284.215 183.506 280.887 174.809 274.445L164.287 266.07V290.12ZM233.406 250.072C233.406 275.089 247.149 290.228 269.589 290.228C292.244 290.228 306.095 275.089 306.095 250.072C306.095 224.84 292.244 209.594 269.589 209.594C247.579 209.594 233.406 225.377 233.406 250.072ZM289.452 249.857C289.452 272.834 282.688 284.537 269.589 284.537C256.705 284.537 250.048 273.049 250.048 249.857C250.048 226.773 256.812 215.285 269.589 215.285C282.474 215.285 289.452 226.88 289.452 249.857ZM374.003 271.331C369.064 280.135 361.871 284.752 353.603 284.752C340.075 284.752 332.881 272.941 332.881 249.965C332.881 227.417 339.753 215.07 352.422 215.07C359.616 215.07 365.951 219.257 370.89 227.525L376.902 237.51V210.668L369.494 214.104C365.199 211.205 358.542 209.594 351.671 209.594C330.412 209.594 316.239 225.699 316.239 251.253C316.239 275.948 329.231 290.228 352.1 290.228C360.904 290.228 370.46 288.08 378.513 284.215V263.493L374.003 271.331ZM469.831 289.047V262.849L457.913 275.089H434.936L441.915 268.754C461.563 254.045 468.864 243.952 468.864 232.141C468.864 218.184 458.342 209.594 441.807 209.594C424.521 209.594 412.388 219.043 412.388 231.927C412.388 237.617 414.965 240.731 419.367 240.731C423.877 240.731 426.024 237.725 426.132 230.96C426.346 221.19 430.963 215.285 439.338 215.285C447.605 215.285 452.33 221.297 452.33 232.571C452.33 245.67 446.639 256.836 434.399 268.11L411.744 289.047H469.831Z" fill="white"/>
<path d="M170.041 494.118H175.003V479.55H181.78C192.665 479.55 196.667 474.481 196.667 468.131C196.667 461.781 192.665 456.766 181.886 456.766H170.041V494.118ZM175.003 475.495V460.928H181.833C188.983 460.928 191.438 464.023 191.438 468.238C191.438 472.453 188.983 475.495 181.833 475.495H175.003ZM214.09 494.865C223.001 494.865 228.337 488.888 228.337 480.137C228.337 471.333 223.001 465.357 214.09 465.357C205.126 465.357 199.79 471.333 199.79 480.137C199.79 488.888 205.126 494.865 214.09 494.865ZM214.09 490.969C208.381 490.969 204.699 487.181 204.699 480.137C204.699 473.094 208.381 469.252 214.09 469.252C219.8 469.252 223.428 473.094 223.428 480.137C223.428 487.181 219.8 490.969 214.09 490.969ZM267.778 466.104L261.161 488.888L254.544 466.104H249.689L243.072 488.621L236.509 466.104H231.44L240.297 494.118H245.313L251.823 471.813L258.44 494.118H263.402L272.313 466.104H267.778ZM288.742 465.357C280.791 465.357 275.402 470.959 275.402 479.977C275.402 488.728 280.417 494.865 289.062 494.865C296.265 494.865 300.481 490.542 301.495 485.313L297.119 484.566C296.052 488.942 293.17 490.969 289.062 490.969C282.872 490.969 280.204 486.434 280.097 480.991H301.708C302.242 471.76 297.279 465.357 288.742 465.357ZM280.097 477.469C280.364 473.574 283.085 469.198 288.742 469.198C294.504 469.198 296.906 473.734 296.906 477.469H280.097ZM308.273 494.118H312.969V478.803C312.969 472.027 316.01 469.572 320.439 469.572C321.56 469.572 322.68 469.732 323.854 470.052V465.89C323 465.57 322.093 465.357 320.866 465.357C317.451 465.357 314.569 467.011 312.969 470.746V466.104H308.273V494.118ZM339.392 465.357C331.441 465.357 326.052 470.959 326.052 479.977C326.052 488.728 331.068 494.865 339.712 494.865C346.916 494.865 351.131 490.542 352.145 485.313L347.769 484.566C346.702 488.942 343.821 490.969 339.712 490.969C333.522 490.969 330.854 486.434 330.748 480.991H352.358C352.892 471.76 347.929 465.357 339.392 465.357ZM330.748 477.469C331.014 473.574 333.736 469.198 339.392 469.198C345.155 469.198 347.556 473.734 347.556 477.469H330.748ZM379.2 456.766V470.959C377.706 467.491 374.344 465.357 369.809 465.357C362.392 465.357 357.056 471.333 357.056 480.137C357.056 488.888 362.285 494.865 369.809 494.865C374.398 494.865 377.759 492.623 379.2 488.995V494.118H383.789V456.766H379.2ZM370.716 490.916C365.913 490.916 362.018 487.448 362.018 480.137C362.018 472.72 365.913 469.252 370.716 469.252C375.518 469.252 379.467 472.72 379.467 480.137C379.467 487.448 375.518 490.916 370.716 490.916ZM420.026 465.357C415.49 465.357 411.755 467.544 409.994 471.013V456.766H405.405V494.118H409.46L409.994 489.422C411.968 492.837 415.383 494.865 419.919 494.865C427.709 494.865 432.245 488.621 432.245 480.084C432.245 471.333 427.443 465.357 420.026 465.357ZM418.638 490.916C413.836 490.916 409.887 487.448 409.887 480.084C409.887 472.72 413.782 469.252 418.638 469.252C423.441 469.252 427.336 472.72 427.336 480.084C427.336 487.448 423.441 490.916 418.638 490.916ZM458.621 466.104L449.23 488.141L439.678 466.104H434.449L446.615 493.477L445.708 495.185C443.627 499.293 442.666 500.734 439.678 500.734C438.558 500.734 437.01 500.361 435.676 499.827V504.043C437.064 504.629 438.718 505.003 439.998 505.003C444.961 505.003 447.362 502.495 450.457 495.452L463.37 466.104H458.621Z" fill="black"/>
</g>
<defs>
<clipPath id="clip0_241_98">
<rect width="630" height="630" fill="white"/>
</clipPath>
</defs>
</svg>
