<?xml version="1.0" encoding="utf-8" standalone="no"?>
<!DOCTYPE svg PUBLIC "-//W3C//DTD SVG 1.1//EN"
  "http://www.w3.org/Graphics/SVG/1.1/DTD/svg11.dtd">
<svg xmlns:xlink="http://www.w3.org/1999/xlink" width="460.8pt" height="345.6pt" viewBox="0 0 460.8 345.6" xmlns="http://www.w3.org/2000/svg" version="1.1">
 <metadata>
  <rdf:RDF xmlns:dc="http://purl.org/dc/elements/1.1/" xmlns:cc="http://creativecommons.org/ns#" xmlns:rdf="http://www.w3.org/1999/02/22-rdf-syntax-ns#">
   <cc:Work>
    <dc:type rdf:resource="http://purl.org/dc/dcmitype/StillImage"/>
    <dc:date>2024-10-18T11:51:16.296672</dc:date>
    <dc:format>image/svg+xml</dc:format>
    <dc:creator>
     <cc:Agent>
      <dc:title>Matplotlib v3.8.3, https://matplotlib.org/</dc:title>
     </cc:Agent>
    </dc:creator>
   </cc:Work>
  </rdf:RDF>
 </metadata>
 <defs>
  <style type="text/css">*{stroke-linejoin: round; stroke-linecap: butt}</style>
 </defs>
 <g id="figure_1">
  <g id="patch_1">
   <path d="M 0 345.6 
L 460.8 345.6 
L 460.8 0 
L 0 0 
z
" style="fill: #ffffff"/>
  </g>
  <g id="axes_1">
   <g id="patch_2">
    <path d="M 10.8 329.348078 
L 450 329.348078 
L 450 10.8 
L 10.8 10.8 
z
" style="fill: #ffffff"/>
   </g>
   <g id="matplotlib.axis_1">
    <g id="xtick_1">
     <g id="line2d_1">
      <defs>
       <path id="mf58d3cb082" d="M 0 0 
L 0 3.5 
" style="stroke: #000000; stroke-width: 0.8"/>
      </defs>
      <g>
       <use xlink:href="#mf58d3cb082" x="70.690909" y="315.428744" style="stroke: #000000; stroke-width: 0.8"/>
      </g>
     </g>
     <g id="text_1">
      <!-- −2 -->
      <g transform="translate(63.319815 330.027181) scale(0.1 -0.1)">
       <defs>
        <path id="DejaVuSans-2212" d="M 678 2272 
L 4684 2272 
L 4684 1741 
L 678 1741 
L 678 2272 
z
" transform="scale(0.015625)"/>
        <path id="DejaVuSans-32" d="M 1228 531 
L 3431 531 
L 3431 0 
L 469 0 
L 469 531 
Q 828 903 1448 1529 
Q 2069 2156 2228 2338 
Q 2531 2678 2651 2914 
Q 2772 3150 2772 3378 
Q 2772 3750 2511 3984 
Q 2250 4219 1831 4219 
Q 1534 4219 1204 4116 
Q 875 4013 500 3803 
L 500 4441 
Q 881 4594 1212 4672 
Q 1544 4750 1819 4750 
Q 2544 4750 2975 4387 
Q 3406 4025 3406 3419 
Q 3406 3131 3298 2873 
Q 3191 2616 2906 2266 
Q 2828 2175 2409 1742 
Q 1991 1309 1228 531 
z
" transform="scale(0.015625)"/>
       </defs>
       <use xlink:href="#DejaVuSans-2212"/>
       <use xlink:href="#DejaVuSans-32" x="83.789062"/>
      </g>
     </g>
    </g>
    <g id="xtick_2">
     <g id="line2d_2">
      <g>
       <use xlink:href="#mf58d3cb082" x="150.545455" y="315.428744" style="stroke: #000000; stroke-width: 0.8"/>
      </g>
     </g>
     <g id="text_2">
      <!-- −1 -->
      <g transform="translate(143.174361 330.027181) scale(0.1 -0.1)">
       <defs>
        <path id="DejaVuSans-31" d="M 794 531 
L 1825 531 
L 1825 4091 
L 703 3866 
L 703 4441 
L 1819 4666 
L 2450 4666 
L 2450 531 
L 3481 531 
L 3481 0 
L 794 0 
L 794 531 
z
" transform="scale(0.015625)"/>
       </defs>
       <use xlink:href="#DejaVuSans-2212"/>
       <use xlink:href="#DejaVuSans-31" x="83.789062"/>
      </g>
     </g>
    </g>
    <g id="xtick_3">
     <g id="line2d_3">
      <g>
       <use xlink:href="#mf58d3cb082" x="230.4" y="315.428744" style="stroke: #000000; stroke-width: 0.8"/>
      </g>
     </g>
     <g id="text_3">
      <!-- 0 -->
      <g transform="translate(227.21875 330.027181) scale(0.1 -0.1)">
       <defs>
        <path id="DejaVuSans-30" d="M 2034 4250 
Q 1547 4250 1301 3770 
Q 1056 3291 1056 2328 
Q 1056 1369 1301 889 
Q 1547 409 2034 409 
Q 2525 409 2770 889 
Q 3016 1369 3016 2328 
Q 3016 3291 2770 3770 
Q 2525 4250 2034 4250 
z
M 2034 4750 
Q 2819 4750 3233 4129 
Q 3647 3509 3647 2328 
Q 3647 1150 3233 529 
Q 2819 -91 2034 -91 
Q 1250 -91 836 529 
Q 422 1150 422 2328 
Q 422 3509 836 4129 
Q 1250 4750 2034 4750 
z
" transform="scale(0.015625)"/>
       </defs>
       <use xlink:href="#DejaVuSans-30"/>
      </g>
     </g>
    </g>
    <g id="xtick_4">
     <g id="line2d_4">
      <g>
       <use xlink:href="#mf58d3cb082" x="310.254545" y="315.428744" style="stroke: #000000; stroke-width: 0.8"/>
      </g>
     </g>
     <g id="text_4">
      <!-- 1 -->
      <g transform="translate(307.073295 330.027181) scale(0.1 -0.1)">
       <use xlink:href="#DejaVuSans-31"/>
      </g>
     </g>
    </g>
    <g id="xtick_5">
     <g id="line2d_5">
      <g>
       <use xlink:href="#mf58d3cb082" x="390.109091" y="315.428744" style="stroke: #000000; stroke-width: 0.8"/>
      </g>
     </g>
     <g id="text_5">
      <!-- 2 -->
      <g transform="translate(386.927841 330.027181) scale(0.1 -0.1)">
       <use xlink:href="#DejaVuSans-32"/>
      </g>
     </g>
    </g>
   </g>
   <g id="matplotlib.axis_2"/>
   <g id="patch_3">
    <path d="M 10.8 315.428744 
L 450 315.428744 
" style="fill: none; stroke: #000000; stroke-width: 0.8; stroke-linejoin: miter; stroke-linecap: square"/>
   </g>
   <g id="legend_1">
    <g id="line2d_6">
     <path d="M 391.3 23.898438 
L 401.3 23.898438 
L 411.3 23.898438 
" style="fill: none; stroke: #306693; stroke-width: 3; stroke-linecap: square"/>
    </g>
    <g id="text_6">
     <!-- $e^{-|x|}$ -->
     <g transform="translate(419.3 27.398438) scale(0.1 -0.1)">
      <defs>
       <path id="DejaVuSans-Oblique-65" d="M 3078 2063 
Q 3088 2113 3092 2166 
Q 3097 2219 3097 2272 
Q 3097 2653 2873 2875 
Q 2650 3097 2266 3097 
Q 1838 3097 1509 2826 
Q 1181 2556 1013 2059 
L 3078 2063 
z
M 3578 1613 
L 903 1613 
Q 884 1494 878 1425 
Q 872 1356 872 1306 
Q 872 872 1139 634 
Q 1406 397 1894 397 
Q 2269 397 2603 481 
Q 2938 566 3225 728 
L 3116 159 
Q 2806 34 2476 -28 
Q 2147 -91 1806 -91 
Q 1078 -91 686 257 
Q 294 606 294 1247 
Q 294 1794 489 2264 
Q 684 2734 1063 3103 
Q 1306 3334 1642 3459 
Q 1978 3584 2356 3584 
Q 2950 3584 3301 3228 
Q 3653 2872 3653 2272 
Q 3653 2128 3634 1964 
Q 3616 1800 3578 1613 
z
" transform="scale(0.015625)"/>
       <path id="DejaVuSans-7c" d="M 1344 4891 
L 1344 -1509 
L 813 -1509 
L 813 4891 
L 1344 4891 
z
" transform="scale(0.015625)"/>
       <path id="DejaVuSans-Oblique-78" d="M 3841 3500 
L 2234 1784 
L 3219 0 
L 2559 0 
L 1819 1388 
L 531 0 
L -166 0 
L 1556 1844 
L 641 3500 
L 1300 3500 
L 1972 2234 
L 3144 3500 
L 3841 3500 
z
" transform="scale(0.015625)"/>
      </defs>
      <use xlink:href="#DejaVuSans-Oblique-65" transform="translate(0 0.223438)"/>
      <use xlink:href="#DejaVuSans-2212" transform="translate(66.173333 38.504688) scale(0.7)"/>
      <use xlink:href="#DejaVuSans-7c" transform="translate(124.825677 38.504688) scale(0.7)"/>
      <use xlink:href="#DejaVuSans-Oblique-78" transform="translate(148.409661 38.504688) scale(0.7)"/>
      <use xlink:href="#DejaVuSans-7c" transform="translate(189.835443 38.504688) scale(0.7)"/>
     </g>
    </g>
    <g id="line2d_7">
     <path d="M 391.3 39.298437 
L 401.3 39.298437 
L 411.3 39.298437 
" style="fill: none; stroke: #677d00; stroke-width: 3; stroke-linecap: square"/>
    </g>
    <g id="text_7">
     <!-- $e^{-x^2}$ -->
     <g transform="translate(419.3 42.798437) scale(0.1 -0.1)">
      <use xlink:href="#DejaVuSans-Oblique-65" transform="translate(0 0.554688)"/>
      <use xlink:href="#DejaVuSans-2212" transform="translate(66.173333 38.835938) scale(0.7)"/>
      <use xlink:href="#DejaVuSans-Oblique-78" transform="translate(124.825677 38.835938) scale(0.7)"/>
      <use xlink:href="#DejaVuSans-32" transform="translate(169.37776 65.632812) scale(0.49)"/>
     </g>
    </g>
   </g>
   <g id="line2d_8">
    <path d="M 30.763636 291.611691 
L 38.357412 289.23562 
L 45.951188 286.622504 
L 53.145291 283.906857 
L 59.939722 281.107408 
L 66.734152 278.05934 
L 73.128911 274.94371 
L 79.123997 271.787291 
L 85.119083 268.384782 
L 91.114169 264.716996 
L 96.709582 261.036169 
L 102.304996 257.088174 
L 107.90041 252.853621 
L 113.096151 248.646792 
L 118.291892 244.157144 
L 123.487633 239.365664 
L 128.683374 234.25206 
L 133.479443 229.227197 
L 138.275512 223.891294 
L 143.071581 218.225096 
L 147.867649 212.208159 
L 152.663718 205.818771 
L 157.459787 199.033879 
L 162.255856 191.828999 
L 166.652252 184.833404 
L 171.048649 177.441866 
L 175.445045 169.631977 
L 179.841441 161.380057 
L 184.237838 152.661089 
L 188.634234 143.448638 
L 193.030631 133.714773 
L 197.427027 123.429983 
L 201.823423 112.563086 
L 206.21982 101.081137 
L 210.616216 88.949323 
L 215.012613 76.130863 
L 219.409009 62.586894 
L 223.805405 48.276353 
L 228.201802 33.155852 
L 230.200164 26.002837 
L 230.599836 26.002837 
L 234.996233 41.506503 
L 239.392629 56.179684 
L 243.789025 70.066868 
L 248.185422 83.210158 
L 252.581818 95.649401 
L 256.978215 107.422313 
L 261.374611 118.564585 
L 265.771007 129.109999 
L 270.167404 139.090528 
L 274.5638 148.53643 
L 278.960197 157.476343 
L 283.356593 165.937373 
L 287.752989 173.945171 
L 292.149386 181.524016 
L 296.545782 188.696885 
L 301.341851 196.084342 
L 306.13792 203.041169 
L 310.933989 209.592469 
L 315.730057 215.76188 
L 320.526126 221.571663 
L 325.322195 227.042783 
L 330.118264 232.19498 
L 335.314005 237.438166 
L 340.509746 242.351066 
L 345.705487 246.954485 
L 350.901229 251.267919 
L 356.09697 255.309634 
L 361.692383 259.377985 
L 367.287797 263.171024 
L 372.88321 266.707383 
L 378.878296 270.231212 
L 384.873382 273.500176 
L 391.268141 276.726897 
L 397.662899 279.705297 
L 404.45733 282.619111 
L 411.251761 285.295257 
L 418.445864 287.891291 
L 426.03964 290.389311 
L 430.036364 291.611691 
L 430.036364 291.611691 
" clip-path="url(#pc4f13c85c8)" style="fill: none; stroke: #306693; stroke-width: 3; stroke-linecap: square"/>
   </g>
   <g id="line2d_9">
    <path d="M 30.763636 314.86862 
L 40.355774 314.422148 
L 47.94955 313.86018 
L 54.344308 313.181557 
L 59.939722 312.383025 
L 65.135463 311.424785 
L 69.931532 310.313253 
L 74.327928 309.065682 
L 78.324652 307.710046 
L 82.321376 306.112386 
L 85.918428 304.440767 
L 89.515479 302.521697 
L 93.112531 300.328859 
L 96.30991 298.127833 
L 99.507289 295.669435 
L 102.704668 292.93395 
L 105.902048 289.901744 
L 109.099427 286.553545 
L 112.296806 282.870747 
L 115.494185 278.835758 
L 118.691564 274.432366 
L 121.888943 269.646129 
L 125.086323 264.464782 
L 128.283702 258.878661 
L 131.481081 252.881125 
L 135.078133 245.638293 
L 138.675184 237.872134 
L 142.272236 229.590819 
L 146.26896 219.804466 
L 150.265684 209.434737 
L 154.66208 197.409538 
L 159.458149 183.644258 
L 165.053563 166.903199 
L 173.047011 142.208404 
L 183.838165 108.904884 
L 189.033907 93.565946 
L 193.430303 81.254112 
L 197.027355 71.775412 
L 200.624406 62.939752 
L 203.821785 55.703547 
L 206.619492 49.901273 
L 209.417199 44.634966 
L 211.815233 40.575497 
L 214.213268 36.957877 
L 216.21163 34.294449 
L 218.209992 31.960813 
L 220.208354 29.965574 
L 222.206716 28.316125 
L 223.805405 27.249705 
L 225.404095 26.411094 
L 227.002785 25.802301 
L 228.601474 25.424787 
L 230.200164 25.279458 
L 231.798853 25.366664 
L 233.397543 25.686195 
L 234.996233 26.237284 
L 236.594922 27.018608 
L 238.193612 28.028294 
L 239.792301 29.263927 
L 241.790663 31.121668 
L 243.789025 33.320911 
L 245.787387 35.85353 
L 247.785749 38.710221 
L 250.183784 42.551269 
L 252.581818 46.823895 
L 255.379525 52.32459 
L 258.177232 58.344531 
L 261.374611 65.807482 
L 264.57199 73.829697 
L 268.169042 83.437785 
L 272.565438 95.876936 
L 277.761179 111.322142 
L 284.955283 133.491362 
L 297.744799 172.952705 
L 303.340213 189.454463 
L 308.136282 202.951466 
L 312.532678 214.689957 
L 316.529402 224.772929 
L 320.526126 234.254399 
L 324.123178 242.250955 
L 327.720229 249.726931 
L 331.317281 256.678049 
L 334.914333 263.106513 
L 338.111712 268.388259 
L 341.309091 273.272218 
L 344.50647 277.770046 
L 347.703849 281.895678 
L 350.901229 285.664921 
L 354.098608 289.09506 
L 357.295987 292.204477 
L 360.493366 295.012311 
L 363.690745 297.538131 
L 366.888124 299.801657 
L 370.485176 302.059005 
L 374.082228 304.036601 
L 377.679279 305.760992 
L 381.676003 307.410882 
L 385.672727 308.812435 
L 390.069124 310.103792 
L 394.46552 311.169007 
L 399.261589 312.112586 
L 404.857002 312.975148 
L 410.852088 313.671252 
L 418.046192 314.268526 
L 426.439312 314.728553 
L 430.036364 314.86862 
L 430.036364 314.86862 
" clip-path="url(#pc4f13c85c8)" style="fill: none; stroke: #677d00; stroke-width: 3; stroke-linecap: square"/>
   </g>
   <g id="line2d_10">
    <defs>
     <path id="m42c93a0358" d="M -0 3.535534 
L 3.535534 0 
L 0 -3.535534 
L -3.535534 -0 
z
" style="stroke: #677d00; stroke-linejoin: miter"/>
    </defs>
    <g>
     <use xlink:href="#m42c93a0358" x="173.934309" y="139.443204" style="fill: #677d00; stroke: #677d00; stroke-linejoin: miter"/>
     <use xlink:href="#m42c93a0358" x="286.865691" y="139.443204" style="fill: #677d00; stroke: #677d00; stroke-linejoin: miter"/>
    </g>
   </g>
  </g>
 </g>
 <defs>
  <clipPath id="pc4f13c85c8">
   <rect x="10.8" y="10.8" width="439.2" height="318.548078"/>
  </clipPath>
 </defs>
</svg>
