<?xml version="1.0" encoding="utf-8" standalone="no"?>
<!DOCTYPE svg PUBLIC "-//W3C//DTD SVG 1.1//EN"
  "http://www.w3.org/Graphics/SVG/1.1/DTD/svg11.dtd">
<svg xmlns:xlink="http://www.w3.org/1999/xlink" width="460.8pt" height="345.6pt" viewBox="0 0 460.8 345.6" xmlns="http://www.w3.org/2000/svg" version="1.1">
 <metadata>
  <rdf:RDF xmlns:dc="http://purl.org/dc/elements/1.1/" xmlns:cc="http://creativecommons.org/ns#" xmlns:rdf="http://www.w3.org/1999/02/22-rdf-syntax-ns#">
   <cc:Work>
    <dc:type rdf:resource="http://purl.org/dc/dcmitype/StillImage"/>
    <dc:date>2024-10-18T11:51:17.358846</dc:date>
    <dc:format>image/svg+xml</dc:format>
    <dc:creator>
     <cc:Agent>
      <dc:title>Matplotlib v3.8.3, https://matplotlib.org/</dc:title>
     </cc:Agent>
    </dc:creator>
   </cc:Work>
  </rdf:RDF>
 </metadata>
 <defs>
  <style type="text/css">*{stroke-linejoin: round; stroke-linecap: butt}</style>
 </defs>
 <g id="figure_1">
  <g id="patch_1">
   <path d="M 0 345.6 
L 460.8 345.6 
L 460.8 0 
L 0 0 
z
" style="fill: #ffffff"/>
  </g>
  <g id="axes_1">
   <g id="patch_2">
    <path d="M 10.8 329.814842 
L 450 329.814842 
L 450 10.8 
L 10.8 10.8 
z
" style="fill: #ffffff"/>
   </g>
   <g id="matplotlib.axis_1">
    <g id="xtick_1">
     <g id="line2d_1">
      <defs>
       <path id="m60e2894ddb" d="M 0 0 
L 0 3.5 
" style="stroke: #000000; stroke-width: 0.8"/>
      </defs>
      <g>
       <use xlink:href="#m60e2894ddb" x="59.283117" y="315.315555" style="stroke: #000000; stroke-width: 0.8"/>
      </g>
     </g>
     <g id="text_1">
      <!-- −3 -->
      <g transform="translate(51.912023 329.913993) scale(0.1 -0.1)">
       <defs>
        <path id="DejaVuSans-2212" d="M 678 2272 
L 4684 2272 
L 4684 1741 
L 678 1741 
L 678 2272 
z
" transform="scale(0.015625)"/>
        <path id="DejaVuSans-33" d="M 2597 2516 
Q 3050 2419 3304 2112 
Q 3559 1806 3559 1356 
Q 3559 666 3084 287 
Q 2609 -91 1734 -91 
Q 1441 -91 1130 -33 
Q 819 25 488 141 
L 488 750 
Q 750 597 1062 519 
Q 1375 441 1716 441 
Q 2309 441 2620 675 
Q 2931 909 2931 1356 
Q 2931 1769 2642 2001 
Q 2353 2234 1838 2234 
L 1294 2234 
L 1294 2753 
L 1863 2753 
Q 2328 2753 2575 2939 
Q 2822 3125 2822 3475 
Q 2822 3834 2567 4026 
Q 2313 4219 1838 4219 
Q 1578 4219 1281 4162 
Q 984 4106 628 3988 
L 628 4550 
Q 988 4650 1302 4700 
Q 1616 4750 1894 4750 
Q 2613 4750 3031 4423 
Q 3450 4097 3450 3541 
Q 3450 3153 3228 2886 
Q 3006 2619 2597 2516 
z
" transform="scale(0.015625)"/>
       </defs>
       <use xlink:href="#DejaVuSans-2212"/>
       <use xlink:href="#DejaVuSans-33" x="83.789062"/>
      </g>
     </g>
    </g>
    <g id="xtick_2">
     <g id="line2d_2">
      <g>
       <use xlink:href="#m60e2894ddb" x="116.322078" y="315.315555" style="stroke: #000000; stroke-width: 0.8"/>
      </g>
     </g>
     <g id="text_2">
      <!-- −2 -->
      <g transform="translate(108.950984 329.913993) scale(0.1 -0.1)">
       <defs>
        <path id="DejaVuSans-32" d="M 1228 531 
L 3431 531 
L 3431 0 
L 469 0 
L 469 531 
Q 828 903 1448 1529 
Q 2069 2156 2228 2338 
Q 2531 2678 2651 2914 
Q 2772 3150 2772 3378 
Q 2772 3750 2511 3984 
Q 2250 4219 1831 4219 
Q 1534 4219 1204 4116 
Q 875 4013 500 3803 
L 500 4441 
Q 881 4594 1212 4672 
Q 1544 4750 1819 4750 
Q 2544 4750 2975 4387 
Q 3406 4025 3406 3419 
Q 3406 3131 3298 2873 
Q 3191 2616 2906 2266 
Q 2828 2175 2409 1742 
Q 1991 1309 1228 531 
z
" transform="scale(0.015625)"/>
       </defs>
       <use xlink:href="#DejaVuSans-2212"/>
       <use xlink:href="#DejaVuSans-32" x="83.789062"/>
      </g>
     </g>
    </g>
    <g id="xtick_3">
     <g id="line2d_3">
      <g>
       <use xlink:href="#m60e2894ddb" x="173.361039" y="315.315555" style="stroke: #000000; stroke-width: 0.8"/>
      </g>
     </g>
     <g id="text_3">
      <!-- −1 -->
      <g transform="translate(165.989945 329.913993) scale(0.1 -0.1)">
       <defs>
        <path id="DejaVuSans-31" d="M 794 531 
L 1825 531 
L 1825 4091 
L 703 3866 
L 703 4441 
L 1819 4666 
L 2450 4666 
L 2450 531 
L 3481 531 
L 3481 0 
L 794 0 
L 794 531 
z
" transform="scale(0.015625)"/>
       </defs>
       <use xlink:href="#DejaVuSans-2212"/>
       <use xlink:href="#DejaVuSans-31" x="83.789062"/>
      </g>
     </g>
    </g>
    <g id="xtick_4">
     <g id="line2d_4">
      <g>
       <use xlink:href="#m60e2894ddb" x="230.4" y="315.315555" style="stroke: #000000; stroke-width: 0.8"/>
      </g>
     </g>
     <g id="text_4">
      <!-- 0 -->
      <g transform="translate(227.21875 329.913993) scale(0.1 -0.1)">
       <defs>
        <path id="DejaVuSans-30" d="M 2034 4250 
Q 1547 4250 1301 3770 
Q 1056 3291 1056 2328 
Q 1056 1369 1301 889 
Q 1547 409 2034 409 
Q 2525 409 2770 889 
Q 3016 1369 3016 2328 
Q 3016 3291 2770 3770 
Q 2525 4250 2034 4250 
z
M 2034 4750 
Q 2819 4750 3233 4129 
Q 3647 3509 3647 2328 
Q 3647 1150 3233 529 
Q 2819 -91 2034 -91 
Q 1250 -91 836 529 
Q 422 1150 422 2328 
Q 422 3509 836 4129 
Q 1250 4750 2034 4750 
z
" transform="scale(0.015625)"/>
       </defs>
       <use xlink:href="#DejaVuSans-30"/>
      </g>
     </g>
    </g>
    <g id="xtick_5">
     <g id="line2d_5">
      <g>
       <use xlink:href="#m60e2894ddb" x="287.438961" y="315.315555" style="stroke: #000000; stroke-width: 0.8"/>
      </g>
     </g>
     <g id="text_5">
      <!-- 1 -->
      <g transform="translate(284.257711 329.913993) scale(0.1 -0.1)">
       <use xlink:href="#DejaVuSans-31"/>
      </g>
     </g>
    </g>
    <g id="xtick_6">
     <g id="line2d_6">
      <g>
       <use xlink:href="#m60e2894ddb" x="344.477922" y="315.315555" style="stroke: #000000; stroke-width: 0.8"/>
      </g>
     </g>
     <g id="text_6">
      <!-- 2 -->
      <g transform="translate(341.296672 329.913993) scale(0.1 -0.1)">
       <use xlink:href="#DejaVuSans-32"/>
      </g>
     </g>
    </g>
    <g id="xtick_7">
     <g id="line2d_7">
      <g>
       <use xlink:href="#m60e2894ddb" x="401.516883" y="315.315555" style="stroke: #000000; stroke-width: 0.8"/>
      </g>
     </g>
     <g id="text_7">
      <!-- 3 -->
      <g transform="translate(398.335633 329.913993) scale(0.1 -0.1)">
       <use xlink:href="#DejaVuSans-33"/>
      </g>
     </g>
    </g>
   </g>
   <g id="matplotlib.axis_2"/>
   <g id="patch_3">
    <path d="M 10.8 315.315555 
L 450 315.315555 
" style="fill: none; stroke: #000000; stroke-width: 0.8; stroke-linejoin: miter; stroke-linecap: square"/>
   </g>
   <g id="legend_1">
    <g id="line2d_8">
     <path d="M 388.4 24.620313 
L 398.4 24.620313 
L 408.4 24.620313 
" style="fill: none; stroke-dasharray: 3,4.95; stroke-dashoffset: 0; stroke: #677d00; stroke-width: 3"/>
    </g>
    <g id="text_8">
     <!-- $e^{-x^2}$ -->
     <g transform="translate(416.4 28.120313) scale(0.1 -0.1)">
      <defs>
       <path id="DejaVuSans-Oblique-65" d="M 3078 2063 
Q 3088 2113 3092 2166 
Q 3097 2219 3097 2272 
Q 3097 2653 2873 2875 
Q 2650 3097 2266 3097 
Q 1838 3097 1509 2826 
Q 1181 2556 1013 2059 
L 3078 2063 
z
M 3578 1613 
L 903 1613 
Q 884 1494 878 1425 
Q 872 1356 872 1306 
Q 872 872 1139 634 
Q 1406 397 1894 397 
Q 2269 397 2603 481 
Q 2938 566 3225 728 
L 3116 159 
Q 2806 34 2476 -28 
Q 2147 -91 1806 -91 
Q 1078 -91 686 257 
Q 294 606 294 1247 
Q 294 1794 489 2264 
Q 684 2734 1063 3103 
Q 1306 3334 1642 3459 
Q 1978 3584 2356 3584 
Q 2950 3584 3301 3228 
Q 3653 2872 3653 2272 
Q 3653 2128 3634 1964 
Q 3616 1800 3578 1613 
z
" transform="scale(0.015625)"/>
       <path id="DejaVuSans-Oblique-78" d="M 3841 3500 
L 2234 1784 
L 3219 0 
L 2559 0 
L 1819 1388 
L 531 0 
L -166 0 
L 1556 1844 
L 641 3500 
L 1300 3500 
L 1972 2234 
L 3144 3500 
L 3841 3500 
z
" transform="scale(0.015625)"/>
      </defs>
      <use xlink:href="#DejaVuSans-Oblique-65" transform="translate(0 0.554688)"/>
      <use xlink:href="#DejaVuSans-2212" transform="translate(66.173333 38.835938) scale(0.7)"/>
      <use xlink:href="#DejaVuSans-Oblique-78" transform="translate(124.825677 38.835938) scale(0.7)"/>
      <use xlink:href="#DejaVuSans-32" transform="translate(169.37776 65.632812) scale(0.49)"/>
     </g>
    </g>
    <g id="line2d_9">
     <path d="M 388.4 40.320312 
L 398.4 40.320312 
L 408.4 40.320312 
" style="fill: none; stroke: #677d00; stroke-width: 3; stroke-linecap: square"/>
    </g>
    <g id="text_9">
     <!-- $e^{-\frac{1}{2}x^2}$ -->
     <g transform="translate(416.4 43.820312) scale(0.1 -0.1)">
      <use xlink:href="#DejaVuSans-Oblique-65" transform="translate(0 0.336875)"/>
      <use xlink:href="#DejaVuSans-2212" transform="translate(66.173333 38.618125) scale(0.7)"/>
      <use xlink:href="#DejaVuSans-31" transform="translate(124.825677 69.275937) scale(0.49)"/>
      <use xlink:href="#DejaVuSans-32" transform="translate(124.825677 11.03375) scale(0.49)"/>
      <use xlink:href="#DejaVuSans-Oblique-78" transform="translate(164.75097 38.618125) scale(0.7)"/>
      <use xlink:href="#DejaVuSans-32" transform="translate(209.303053 65.415) scale(0.49)"/>
      <path d="M 124.825677 51.775937 
L 124.825677 56.150937 
L 156.00097 56.150937 
L 156.00097 51.775937 
L 124.825677 51.775937 
z
"/>
     </g>
    </g>
   </g>
   <g id="line2d_10">
    <path d="M 30.763636 315.314168 
L 71.130549 315.196356 
L 83.120721 314.946648 
L 91.114169 314.569639 
L 97.109255 314.082948 
L 102.304996 313.444385 
L 106.701392 312.686001 
L 110.698116 311.769548 
L 114.295168 310.71336 
L 117.492547 309.551742 
L 120.689926 308.142149 
L 123.487633 306.673339 
L 126.28534 304.953757 
L 129.083047 302.951655 
L 131.481081 300.985344 
L 133.879115 298.764929 
L 136.27715 296.267922 
L 138.675184 293.471547 
L 141.073219 290.353037 
L 143.471253 286.889984 
L 145.869287 283.060726 
L 148.267322 278.844777 
L 150.665356 274.223293 
L 153.463063 268.296867 
L 156.26077 261.773959 
L 159.058477 254.638785 
L 161.856183 246.882814 
L 164.65389 238.505909 
L 167.851269 228.184421 
L 171.048649 217.095173 
L 174.6457 203.765195 
L 178.642424 188.015089 
L 183.038821 169.769886 
L 189.433579 142.175478 
L 197.826699 106.005598 
L 201.823423 89.676557 
L 205.420475 75.912457 
L 208.218182 66.003885 
L 211.015889 56.931451 
L 213.413923 49.911117 
L 215.412285 44.647251 
L 217.410647 39.955797 
L 219.409009 35.869883 
L 221.007699 33.056885 
L 222.606388 30.663151 
L 224.205078 28.699784 
L 225.404095 27.51527 
L 226.603112 26.581147 
L 227.802129 25.899881 
L 229.001147 25.473273 
L 230.200164 25.302455 
L 231.399181 25.387877 
L 232.598198 25.729313 
L 233.797215 26.32586 
L 234.996233 27.175939 
L 236.19525 28.277304 
L 237.394267 29.627053 
L 238.992957 31.806872 
L 240.591646 34.411744 
L 242.190336 37.429624 
L 244.188698 41.761485 
L 246.18706 46.686087 
L 248.185422 52.168831 
L 250.583456 59.431145 
L 252.981491 67.371085 
L 255.779197 77.388921 
L 258.976577 89.676557 
L 262.973301 106.005598 
L 268.568714 129.983151 
L 279.359869 176.498169 
L 283.756265 194.423394 
L 287.752989 209.79592 
L 291.350041 222.733107 
L 294.54742 233.443492 
L 297.744799 243.368428 
L 300.542506 251.391026 
L 303.340213 258.791675 
L 306.13792 265.575446 
L 308.935627 271.755157 
L 311.733333 277.350216 
L 314.53104 282.385453 
L 316.929075 286.277775 
L 319.327109 289.800384 
L 321.725143 292.974777 
L 324.123178 295.823266 
L 326.521212 298.368582 
L 328.919247 300.633523 
L 331.716953 302.951655 
L 334.51466 304.953757 
L 337.312367 306.673339 
L 340.110074 308.142149 
L 343.307453 309.551742 
L 346.504832 310.71336 
L 350.101884 311.769548 
L 354.098608 312.686001 
L 358.495004 313.444385 
L 363.291073 314.041976 
L 368.886486 314.516956 
L 376.08059 314.889529 
L 385.672727 315.140133 
L 400.460606 315.275572 
L 430.036364 315.314168 
L 430.036364 315.314168 
" clip-path="url(#pca2ab44153)" style="fill: none; stroke-dasharray: 3,4.95; stroke-dashoffset: 0; stroke: #677d00; stroke-width: 3"/>
   </g>
   <g id="line2d_11">
    <path d="M 30.763636 314.681147 
L 39.956102 314.214779 
L 47.549877 313.613794 
L 53.944636 312.89311 
L 59.540049 312.049961 
L 64.73579 311.04324 
L 69.531859 309.880689 
L 73.928256 308.581035 
L 77.92498 307.173758 
L 81.921704 305.52062 
L 85.518755 303.796108 
L 89.115807 301.821748 
L 92.712858 299.571731 
L 95.910238 297.318799 
L 99.107617 294.808016 
L 102.304996 292.020261 
L 105.502375 288.936564 
L 108.699754 285.538381 
L 111.897133 281.807895 
L 115.094513 277.728349 
L 118.291892 273.284401 
L 121.489271 268.4625 
L 124.68665 263.251279 
L 127.884029 257.641952 
L 131.481081 250.848509 
L 135.078133 243.540871 
L 138.675184 235.722048 
L 142.272236 227.401801 
L 146.26896 217.59003 
L 150.665356 206.148524 
L 155.061753 194.0898 
L 160.257494 179.156903 
L 166.25258 161.223822 
L 177.443407 126.843698 
L 184.63751 105.10832 
L 189.833251 90.106822 
L 193.829975 79.179678 
L 197.427027 69.924952 
L 200.624406 62.240811 
L 203.821785 55.134897 
L 206.619492 49.43996 
L 209.417199 44.273231 
L 211.815233 40.291893 
L 214.213268 36.744893 
L 216.21163 34.134046 
L 218.209992 31.846888 
L 220.208354 29.891686 
L 222.206716 28.275543 
L 223.805405 27.230754 
L 225.404095 26.409208 
L 227.002785 25.812833 
L 228.601474 25.443032 
L 230.200164 25.300675 
L 231.798853 25.386097 
L 233.397543 25.699098 
L 234.996233 26.23894 
L 236.594922 27.004354 
L 238.193612 27.993541 
L 239.792301 29.204184 
L 241.790663 31.024548 
L 243.789025 33.179852 
L 245.787387 35.662287 
L 247.785749 38.462913 
L 250.183784 42.22949 
L 252.581818 46.420523 
L 255.379525 51.818142 
L 258.177232 57.727865 
L 261.374611 65.058028 
L 264.57199 72.942399 
L 268.169042 82.392304 
L 272.165766 93.497749 
L 276.961835 107.478953 
L 283.356593 126.843698 
L 299.743161 176.803686 
L 305.338575 192.965652 
L 310.134644 206.148524 
L 314.53104 217.59003 
L 318.527764 227.401801 
L 322.524488 236.615807 
L 326.12154 244.378186 
L 329.718591 251.628722 
L 333.315643 258.365119 
L 336.912695 264.591111 
L 340.110074 269.704071 
L 343.307453 274.430326 
L 346.504832 278.781827 
L 349.702211 282.772608 
L 352.89959 286.4184 
L 356.09697 289.736257 
L 359.294349 292.744208 
L 362.491728 295.460932 
L 365.689107 297.905459 
L 368.886486 300.09691 
L 372.483538 302.283393 
L 376.08059 304.200036 
L 379.677641 305.872427 
L 383.674365 307.473893 
L 387.671089 308.835659 
L 392.067486 310.09182 
L 396.863554 311.214045 
L 402.059296 312.184517 
L 407.654709 312.996115 
L 414.049468 313.688713 
L 421.243571 314.240259 
L 430.036364 314.681147 
L 430.036364 314.681147 
" clip-path="url(#pca2ab44153)" style="fill: none; stroke: #677d00; stroke-width: 3; stroke-linecap: square"/>
   </g>
   <g id="line2d_12">
    <defs>
     <path id="m9a2654e17a" d="M -0 3.535534 
L 3.535534 0 
L 0 -3.535534 
L -3.535534 -0 
z
" style="stroke: #677d00; stroke-linejoin: miter"/>
    </defs>
    <g>
     <use xlink:href="#m9a2654e17a" x="190.067364" y="139.411559" style="fill: #677d00; stroke: #677d00; stroke-linejoin: miter"/>
     <use xlink:href="#m9a2654e17a" x="270.732636" y="139.411559" style="fill: #677d00; stroke: #677d00; stroke-linejoin: miter"/>
    </g>
   </g>
   <g id="line2d_13">
    <g>
     <use xlink:href="#m9a2654e17a" x="173.361039" y="139.411559" style="fill: #677d00; stroke: #677d00; stroke-linejoin: miter"/>
     <use xlink:href="#m9a2654e17a" x="287.438961" y="139.411559" style="fill: #677d00; stroke: #677d00; stroke-linejoin: miter"/>
    </g>
   </g>
  </g>
 </g>
 <defs>
  <clipPath id="pca2ab44153">
   <rect x="10.8" y="10.8" width="439.2" height="319.014842"/>
  </clipPath>
 </defs>
</svg>
